<?xml version="1.0" encoding="UTF-8" standalone="no"?>
<svg
   xmlns:dc="http://purl.org/dc/elements/1.1/"
   xmlns:cc="http://creativecommons.org/ns#"
   xmlns:rdf="http://www.w3.org/1999/02/22-rdf-syntax-ns#"
   xmlns:svg="http://www.w3.org/2000/svg"
   xmlns="http://www.w3.org/2000/svg"
   xmlns:sodipodi="http://sodipodi.sourceforge.net/DTD/sodipodi-0.dtd"
   xmlns:inkscape="http://www.inkscape.org/namespaces/inkscape"
   sodipodi:docname="5 - Bed.svg"
   inkscape:version="1.0 (4035a4fb49, 2020-05-01)"
   id="svg831"
   version="1.1"
   viewBox="0 0 22.577778 22.577778"
   height="64pt"
   width="64pt"
   inkscape:export-filename="C:\Users\RainBoyz\Desktop\Oktober 2\Expand [Done!]\5 - Bed.png"
   inkscape:export-xdpi="576"
   inkscape:export-ydpi="576">
  <defs
     id="defs825">
    <pattern
       y="0"
       x="0"
       height="6"
       width="6"
       patternUnits="userSpaceOnUse"
       id="EMFhbasepattern" />
    <pattern
       y="0"
       x="0"
       height="6"
       width="6"
       patternUnits="userSpaceOnUse"
       id="EMFhbasepattern-9" />
    <pattern
       y="0"
       x="0"
       height="6"
       width="6"
       patternUnits="userSpaceOnUse"
       id="EMFhbasepattern-0" />
    <pattern
       y="0"
       x="0"
       height="6"
       width="6"
       patternUnits="userSpaceOnUse"
       id="EMFhbasepattern-7" />
    <pattern
       y="0"
       x="0"
       height="6"
       width="6"
       patternUnits="userSpaceOnUse"
       id="EMFhbasepattern-2" />
    <pattern
       y="0"
       x="0"
       height="6"
       width="6"
       patternUnits="userSpaceOnUse"
       id="EMFhbasepattern-98" />
    <pattern
       y="0"
       x="0"
       height="6"
       width="6"
       patternUnits="userSpaceOnUse"
       id="EMFhbasepattern-6" />
    <pattern
       y="0"
       x="0"
       height="6"
       width="6"
       patternUnits="userSpaceOnUse"
       id="EMFhbasepattern-01" />
    <pattern
       y="0"
       x="0"
       height="6"
       width="6"
       patternUnits="userSpaceOnUse"
       id="EMFhbasepattern-07" />
    <pattern
       y="0"
       x="0"
       height="6"
       width="6"
       patternUnits="userSpaceOnUse"
       id="EMFhbasepattern-8" />
    <pattern
       y="0"
       x="0"
       height="6"
       width="6"
       patternUnits="userSpaceOnUse"
       id="EMFhbasepattern-4" />
    <pattern
       y="0"
       x="0"
       height="6"
       width="6"
       patternUnits="userSpaceOnUse"
       id="EMFhbasepattern-40" />
    <pattern
       y="0"
       x="0"
       height="6"
       width="6"
       patternUnits="userSpaceOnUse"
       id="EMFhbasepattern-08" />
    <pattern
       y="0"
       x="0"
       height="6"
       width="6"
       patternUnits="userSpaceOnUse"
       id="EMFhbasepattern-04" />
    <pattern
       y="0"
       x="0"
       height="6"
       width="6"
       patternUnits="userSpaceOnUse"
       id="EMFhbasepattern-014" />
    <pattern
       y="0"
       x="0"
       height="6"
       width="6"
       patternUnits="userSpaceOnUse"
       id="EMFhbasepattern-27" />
    <pattern
       y="0"
       x="0"
       height="6"
       width="6"
       patternUnits="userSpaceOnUse"
       id="EMFhbasepattern-09" />
    <pattern
       y="0"
       x="0"
       height="6"
       width="6"
       patternUnits="userSpaceOnUse"
       id="EMFhbasepattern-5" />
    <pattern
       y="0"
       x="0"
       height="6"
       width="6"
       patternUnits="userSpaceOnUse"
       id="EMFhbasepattern-018" />
  </defs>
  <sodipodi:namedview
     inkscape:document-rotation="0"
     inkscape:snap-global="true"
     inkscape:snap-nodes="false"
     inkscape:bbox-nodes="true"
     inkscape:snap-bbox="true"
     showguides="true"
     inkscape:snap-midpoints="true"
     inkscape:snap-smooth-nodes="true"
     inkscape:snap-intersection-paths="true"
     inkscape:object-paths="true"
     inkscape:showpageshadow="false"
     inkscape:pagecheckerboard="true"
     inkscape:window-maximized="1"
     inkscape:window-y="-8"
     inkscape:window-x="-8"
     inkscape:window-height="715"
     inkscape:window-width="1366"
     units="pt"
     showgrid="false"
     inkscape:current-layer="layer1"
     inkscape:document-units="pt"
     inkscape:cy="42.666667"
     inkscape:cx="-46.521273"
     inkscape:zoom="2.175182"
     inkscape:pageshadow="2"
     inkscape:pageopacity="0.0"
     borderopacity="1.0"
     bordercolor="#666666"
     pagecolor="#ffffff"
     id="base">
    <inkscape:grid
       id="grid1378"
       type="xygrid" />
    <sodipodi:guide
       inkscape:locked="false"
       id="guide1380"
       orientation="78.000048,0"
       position="0.97013831,21.607643" />
    <sodipodi:guide
       inkscape:locked="false"
       id="guide1382"
       orientation="0,78.000005"
       position="0.97013831,0.97013129" />
    <sodipodi:guide
       inkscape:locked="false"
       id="guide1384"
       orientation="-78.000048,0"
       position="21.607639,0.97013129" />
    <sodipodi:guide
       inkscape:locked="false"
       id="guide1386"
       orientation="0,-78.000005"
       position="21.607639,21.607643" />
  </sodipodi:namedview>
  <metadata
     id="metadata828">
    <rdf:RDF>
      <cc:Work
         rdf:about="">
        <dc:format>image/svg+xml</dc:format>
        <dc:type
           rdf:resource="http://purl.org/dc/dcmitype/StillImage" />
        <dc:title />
      </cc:Work>
    </rdf:RDF>
  </metadata>
  <g
     transform="translate(0,-274.42223)"
     id="layer1"
     inkscape:groupmode="layer"
     inkscape:label="Icon">
    <path
       id="path1142"
       style="color:#000000;font-style:normal;font-variant:normal;font-weight:normal;font-stretch:normal;font-size:medium;line-height:normal;font-family:sans-serif;font-variant-ligatures:normal;font-variant-position:normal;font-variant-caps:normal;font-variant-numeric:normal;font-variant-alternates:normal;font-variant-east-asian:normal;font-feature-settings:normal;font-variation-settings:normal;text-indent:0;text-align:start;text-decoration:none;text-decoration-line:none;text-decoration-style:solid;text-decoration-color:#000000;letter-spacing:normal;word-spacing:normal;text-transform:none;writing-mode:lr-tb;direction:ltr;text-orientation:mixed;dominant-baseline:auto;baseline-shift:baseline;text-anchor:start;white-space:normal;shape-padding:0;shape-margin:0;inline-size:0;clip-rule:nonzero;display:inline;overflow:visible;visibility:visible;opacity:1;isolation:auto;mix-blend-mode:normal;color-interpolation:sRGB;color-interpolation-filters:linearRGB;solid-color:#000000;solid-opacity:1;vector-effect:none;fill:#000000;fill-opacity:1;fill-rule:nonzero;stroke:none;stroke-width:0.689956;stroke-linecap:round;stroke-linejoin:round;stroke-miterlimit:4;stroke-dasharray:none;stroke-dashoffset:0;stroke-opacity:1;color-rendering:auto;image-rendering:auto;shape-rendering:auto;text-rendering:auto;enable-background:accumulate;stop-color:#000000;stop-opacity:1"
       d="m 10.962778,275.39455 c -2.3011467,0.0953 -4.2672815,2.31021 -4.2994202,4.76433 -0.032153,2.45413 2.0575167,4.54333 4.6255312,4.54333 1.798149,0 3.360852,-1.02139 4.140406,-2.51861 0.127204,-0.42211 -0.271436,-0.52435 -0.560589,-0.39012 -0.475917,0.2351 -1.051054,0.31774 -1.509278,0.32139 -1.909341,0 -3.4511189,-1.5411 -3.4511228,-3.45045 -3.9e-6,-1.07688 0.4913098,-2.03457 1.2505438,-2.65875 0.275593,-0.2185 0.07608,-0.64761 -0.196071,-0.61112 z m -0.9985493,0.90759 c -0.466147,0.66892 -0.7458822,1.48222 -0.7458795,2.36228 3.9e-6,2.28224 1.8588578,4.14109 4.1410788,4.14109 0.296053,0 0.585103,-0.0313 0.863794,-0.0904 -0.726904,0.79702 -1.770023,1.29703 -2.934333,1.29703 -2.1951347,0 -3.9679172,-1.7721 -3.9679172,-3.96724 -6.6e-6,-1.72741 1.1002172,-3.19215 2.6432569,-3.74287 z m -7.4736218,5.58364 c -0.5674916,0 -1.0342576,0.46678 -1.0342576,1.03427 0,0.47462 0.3279982,0.87577 0.7667643,0.99586 -0.048334,0.11917 -0.07681,0.24837 -0.07681,0.38405 v 11.03929 c 0,0.37697 0.3136601,0.69063 0.6906288,0.69063 h 0.6899547 c 0.3769674,0 0.689956,-0.31366 0.689956,-0.69063 v -0.27962 H 19.050889 v 0.27962 c 0,0.37697 0.312987,0.69063 0.689955,0.69063 H 20.4308 c 0.376967,0 0.690628,-0.31366 0.690628,-0.69063 v -9.56707 c 0,-0.37696 -0.313661,-0.68996 -0.690628,-0.68996 h -0.689956 c -0.376968,0 -0.689955,0.313 -0.689955,0.68996 v 2.00922 h -7.072044 c -0.158729,0 -0.308145,0.0399 -0.443352,0.10509 -0.06467,-0.0669 -0.153595,-0.1047 -0.246604,-0.10509 h -1.036282 c -0.9485412,0 -1.7242099,0.7777 -1.7242126,1.72624 v 0.65694 H 7.8653878 c 0.062102,-0.14077 0.097698,-0.29553 0.097698,-0.45817 v -2.33736 c 4.17e-5,-0.63012 -0.5187562,-1.1488 -1.1488002,-1.1488 H 6.0556032 c -0.1626465,0 -0.3173995,0.0356 -0.4581753,0.0976 v -1.32802 c 0,-0.63669 -0.3551995,-1.18848 -0.8725488,-1.48705 0.1146738,-0.16667 0.1819214,-0.36762 0.1819214,-0.58282 0,-0.56749 -0.4687874,-1.03427 -1.0362829,-1.03427 z m 0,0.69064 h 1.3799107 c 0.1946092,0 0.3463268,0.14902 0.3463268,0.34363 0,0.19461 -0.151715,0.34632 -0.3463268,0.34632 H 2.4906069 c -0.1946157,0 -0.344302,-0.15171 -0.344302,-0.34632 0,-0.19461 0.1496967,-0.34363 0.344302,-0.34363 z m 0.6899547,1.37991 c 0.1946131,0 0.3463268,0.14901 0.3463268,0.34363 -0.00626,3.68359 0,7.35688 0,11.03929 H 2.8369337 v -11.03929 c -3.9e-6,-0.19462 0.1490096,-0.34362 0.3436279,-0.34363 z m 1.0362828,0.34633 c 0.3057014,0.17895 0.6899561,0.3042 0.6899561,0.68726 v 4.14107 c 0,0.38309 -0.3842547,0.50831 -0.6899561,0.68726 z m 15.5239996,1.46952 H 20.4308 v 9.56707 h -0.689956 z m -13.6852408,1.13803 h 0.7586821 c 0.257202,0 0.4581896,0.20162 0.4581727,0.45884 v 2.33736 c 2.6e-6,0.25719 -0.2010085,0.45819 -0.4581727,0.45817 H 6.0556032 c -0.2572046,0 -0.4581857,-0.20095 -0.4581753,-0.45817 v -2.33736 c 4e-6,-0.25719 0.2009838,-0.45884 0.4581753,-0.45884 z m 4.1970038,1.56115 h 0.689955 v 0.34633 2.07053 H 9.2183492 v -1.38058 c 3.9e-6,-0.57567 0.4585964,-1.03628 1.0342578,-1.03628 z m 1.726238,0 h 7.072044 v 2.41686 h -7.418371 v -2.07053 c 0,-0.19461 0.151714,-0.34633 0.346327,-0.34633 z m -7.7620006,2.38385 h 4.31155 v 0.37664 c -6.91e-4,0.19158 0.1547531,0.34706 0.346323,0.34633 h 2.4141716 7.762 v 2.79082 h -2.783406 v -1.18384 c -6e-6,-0.48568 -0.403044,-0.88602 -0.888721,-0.88602 H 7.8384384 c -0.48568,0 -0.886697,0.40034 -0.8867035,0.88602 V 294.369 H 4.229647 c -0.00443,-1.17126 -0.012778,-2.34251 -0.012778,-3.51379 v 0 z m 3.621594,2.13387 H 11.263285 V 294.369 H 7.6423663 v -1.18384 c 0,-0.11279 0.083277,-0.19608 0.1960721,-0.19608 z m 4.1148016,0 h 3.425522 c 0.112796,0 0.198765,0.0833 0.198765,0.19608 V 294.369 H 11.95324 Z m -2.563751,0.34363 c -0.1905268,7.7e-4 -0.3443737,0.15581 -0.3436279,0.34633 6.898e-4,0.18948 0.1541533,0.34289 0.3436279,0.34363 0.1905281,7.6e-4 0.3455849,-0.1531 0.3463268,-0.34363 6.898e-4,-0.19157 -0.1547465,-0.34707 -0.3463268,-0.34633 z m 4.312223,0 c -0.190528,7.7e-4 -0.344374,0.15581 -0.343629,0.34633 6.89e-4,0.18948 0.154153,0.34289 0.343629,0.34363 0.190528,7.6e-4 0.345585,-0.1531 0.346327,-0.34363 6.89e-4,-0.19157 -0.154747,-0.34707 -0.346327,-0.34633 z"
       sodipodi:nodetypes="csscccscccsscsscssccssssccsssssssscsccssccccsscscsssssssssssccccscsscccccccsscccsccssccccssscccssccccccccssssccccccccsscsscccsssssssssss" />
  </g>
</svg>
