<?xml version="1.0" encoding="UTF-8"?>
<!DOCTYPE svg PUBLIC "-//W3C//DTD SVG 1.1//EN" "http://www.w3.org/Graphics/SVG/1.1/DTD/svg11.dtd">
<svg xmlns="http://www.w3.org/2000/svg" version="1.1" width="470px" height="569px" style="shape-rendering:geometricPrecision; text-rendering:geometricPrecision; image-rendering:optimizeQuality; fill-rule:evenodd; clip-rule:evenodd" xmlns:xlink="http://www.w3.org/1999/xlink">
<g><path style="opacity:0.945" fill="#000000" d="M 88.5,36.5 C 119.287,33.3197 144.787,43.3197 165,66.5C 182.092,89.4582 186.759,114.792 179,142.5C 163.711,175.079 147.877,207.412 131.5,239.5C 147.779,243.047 161.279,251.047 172,263.5C 175.028,269.819 176.195,276.486 175.5,283.5C 186.009,285.301 196.342,287.801 206.5,291C 212.259,297.769 211.592,303.769 204.5,309C 190.032,308.343 175.865,305.843 162,301.5C 149.908,310.2 136.408,315.366 121.5,317C 99.3709,319.867 77.7042,317.867 56.5,311C 43.7583,307.053 34.2583,299.219 28,287.5C 24.5447,277.38 26.2113,268.046 33,259.5C 43.5744,249.461 56.0744,242.961 70.5,240C 54.6005,209.034 39.1005,177.868 24,146.5C 11.222,99.2433 26.3887,64.4099 69.5,42C 75.8282,39.6729 82.1616,37.8396 88.5,36.5 Z M 90.5,57.5 C 125.46,55.2183 148.627,70.5516 160,103.5C 162.63,116.459 161.63,129.126 157,141.5C 138.333,178.833 119.667,216.167 101,253.5C 82,215.5 63,177.5 44,139.5C 34.649,106.057 44.8157,80.5569 74.5,63C 79.8458,60.8303 85.1792,58.997 90.5,57.5 Z M 96.5,97.5 C 108.893,96.4423 117.06,101.776 121,113.5C 122.058,128.277 115.225,136.611 100.5,138.5C 86.3067,136.142 79.8067,127.809 81,113.5C 82.1811,109.637 84.0144,106.137 86.5,103C 89.7667,100.87 93.1,99.037 96.5,97.5 Z M 78.5,259.5 C 79.3764,259.369 80.0431,259.702 80.5,260.5C 84.3333,268.167 88.1667,275.833 92,283.5C 95.7434,287.259 100.243,288.426 105.5,287C 106.931,286.535 108.097,285.701 109,284.5C 113.007,275.813 117.507,267.48 122.5,259.5C 133.885,261.611 144.052,266.277 153,273.5C 155.229,278.242 154.062,282.075 149.5,285C 131.483,295.006 112.15,299.006 91.5,297C 77.4548,296.241 64.4548,292.241 52.5,285C 45.5775,278.908 46.2442,273.574 54.5,269C 62.2722,264.936 70.2722,261.769 78.5,259.5 Z"/></g>
<g><path style="opacity:0.945" fill="#000000" d="M 93.5,76.5 C 117.376,74.6788 133.209,85.0121 141,107.5C 145.189,132.632 135.356,149.465 111.5,158C 86.868,162.105 70.0347,152.605 61,129.5C 56.6071,102.257 67.4404,84.5901 93.5,76.5 Z M 96.5,97.5 C 93.1,99.037 89.7667,100.87 86.5,103C 84.0144,106.137 82.1811,109.637 81,113.5C 79.8067,127.809 86.3067,136.142 100.5,138.5C 115.225,136.611 122.058,128.277 121,113.5C 117.06,101.776 108.893,96.4423 96.5,97.5 Z"/></g>
<g><path style="opacity:0.892" fill="#000000" d="M 237.5,297.5 C 247.282,298.733 250.782,304.066 248,313.5C 243.305,319.076 237.805,319.909 231.5,316C 226.091,307.229 228.091,301.063 237.5,297.5 Z"/></g>
<g><path style="opacity:0.946" fill="#000000" d="M 359.5,298.5 C 384.593,295.96 408.593,299.794 431.5,310C 435.6,312.467 439.434,315.301 443,318.5C 455.802,335.395 453.968,350.561 437.5,364C 423.712,372.533 408.712,377.533 392.5,379C 379.15,379.472 365.816,379.472 352.5,379C 345.198,387.303 337.531,395.303 329.5,403C 317.254,407.633 311.754,403.466 313,390.5C 318.687,384.314 324.187,377.981 329.5,371.5C 318.642,366.802 310.142,359.469 304,349.5C 302.528,343.86 301.695,338.36 301.5,333C 291.769,330.921 282.102,328.587 272.5,326C 265.833,320 265.833,314 272.5,308C 274.199,307.042 276.033,306.542 278,306.5C 290.402,308.851 302.736,311.517 315,314.5C 328.723,305.872 343.557,300.538 359.5,298.5 Z M 361.5,319.5 C 378.098,318.429 394.431,319.929 410.5,324C 418.277,326.298 424.777,330.464 430,336.5C 430.471,341.072 428.637,344.572 424.5,347C 416.19,352.105 407.19,355.438 397.5,357C 377.394,360.207 357.728,358.54 338.5,352C 332.499,349.984 327.666,346.484 324,341.5C 323.041,337.579 324.208,334.412 327.5,332C 337.988,325.339 349.322,321.173 361.5,319.5 Z"/></g>
<g><path style="opacity:0.9" fill="#000000" d="M 290.5,413.5 C 301.956,412.461 306.456,417.461 304,428.5C 300.702,433.22 296.202,434.72 290.5,433C 284.975,430.081 283.142,425.581 285,419.5C 286.36,416.977 288.193,414.977 290.5,413.5 Z"/></g>
<g><path style="opacity:0.945" fill="#000000" d="M 264.5,441.5 C 271.935,441.212 276.268,444.712 277.5,452C 277.01,455.145 275.843,457.978 274,460.5C 269.167,465.333 264.333,470.167 259.5,475C 267.638,478.819 274.805,483.986 281,490.5C 291.619,508.53 288.119,523.364 270.5,535C 246.891,546.991 221.891,551.324 195.5,548C 179.105,546.425 164.105,541.092 150.5,532C 136.604,520.587 134.104,507.087 143,491.5C 151.01,482.502 160.843,476.336 172.5,473C 180.362,470.694 188.362,469.028 196.5,468C 209.85,467.528 223.184,467.528 236.5,468C 245.503,458.488 254.837,449.654 264.5,441.5 Z M 198.5,488.5 C 214.434,487.461 230.101,488.961 245.5,493C 251.112,495.139 256.446,497.806 261.5,501C 265.537,503.773 266.704,507.273 265,511.5C 256.461,519.578 246.295,524.411 234.5,526C 217.025,528.484 199.692,527.818 182.5,524C 173.725,522.031 166.225,517.865 160,511.5C 158.071,507.149 159.238,503.649 163.5,501C 174.336,494.217 186.003,490.051 198.5,488.5 Z"/></g>
</svg>
